<?xml version="1.0" encoding="UTF-8"?>
<svg xmlns="http://www.w3.org/2000/svg" xmlns:xlink="http://www.w3.org/1999/xlink" fill-opacity="1" color-rendering="auto" color-interpolation="auto" stroke="black" text-rendering="auto" stroke-linecap="square" width="441" stroke-miterlimit="10" stroke-opacity="1" shape-rendering="auto" fill="black" stroke-dasharray="none" font-weight="normal" stroke-width="1" height="437" font-family="'Dialog'" font-style="normal" stroke-linejoin="miter" font-size="12" stroke-dashoffset="0" image-rendering="auto">
  <!--Generated by ySVG-->
  <defs id="genericDefs"/>
  <g>
    <defs id="defs1">
      <clipPath clipPathUnits="userSpaceOnUse" id="clipPath1">
        <path d="M0 0 L441 0 L441 437 L0 437 L0 0 Z"/>
      </clipPath>
      <clipPath clipPathUnits="userSpaceOnUse" id="clipPath2">
        <path d="M-22.625 260.375 L528.625 260.375 L528.625 806.625 L-22.625 806.625 L-22.625 260.375 Z"/>
      </clipPath>
    </defs>
    <g fill="white" transform="scale(0.8,0.8) translate(22.625,-260.375)" stroke="white">
      <rect x="-23" width="552" height="547" y="260" clip-path="url(#clipPath2)" stroke="none"/>
    </g>
    <g fill="silver" stroke="silver">
      <path d="M11.1191 425 L11.1191 416.3281 L13.4805 416.3281 Q15.0508 416.3281 15.7363 416.8584 Q16.4219 417.3887 16.4219 418.6016 Q16.4219 419.9844 15.4844 420.7695 Q14.5469 421.5547 12.8828 421.5547 L12.3379 421.5547 L12.3379 425 ZM12.3379 420.623 L12.8359 420.623 Q13.9316 420.623 14.5293 420.1191 Q15.127 419.6152 15.127 418.6953 Q15.127 417.916 14.6582 417.582 Q14.1895 417.248 13.0938 417.248 L12.3379 417.248 ZM20.2773 425.1465 Q18.9121 425.1465 18.0977 424.2412 Q17.2832 423.3359 17.2832 421.8184 Q17.2832 420.2832 18.1006 419.3896 Q18.918 418.4961 20.3184 418.4961 Q21.7188 418.4961 22.5361 419.3896 Q23.3535 420.2832 23.3535 421.8066 Q23.3535 423.3652 22.5332 424.2559 Q21.7129 425.1465 20.2773 425.1465 ZM20.2949 424.2793 Q22.1289 424.2793 22.1289 421.8066 Q22.1289 419.3633 20.3184 419.3633 Q18.5137 419.3633 18.5137 421.8184 Q18.5137 424.2793 20.2949 424.2793 ZM25.8965 425 L24.0742 418.6367 L25.2051 418.6367 L26.5996 423.5645 L28.1055 418.6367 L29.2598 418.6367 L30.5781 423.5645 L32.1777 418.6367 L33.168 418.6367 L31.0938 425 L29.9336 425 L28.5859 420.0723 L27.0625 425 ZM39.0684 424.7949 Q37.9082 425.1465 37.082 425.1465 Q35.6758 425.1465 34.7881 424.2119 Q33.9004 423.2773 33.9004 421.7891 Q33.9004 420.3418 34.6826 419.416 Q35.4648 418.4902 36.6836 418.4902 Q37.8379 418.4902 38.4678 419.3105 Q39.0977 420.1309 39.0977 421.6426 L39.0918 422 L35.0781 422 Q35.3301 424.2676 37.2988 424.2676 Q38.0195 424.2676 39.0684 423.8809 ZM35.1309 421.1328 L37.9375 421.1328 Q37.9375 419.3574 36.6133 419.3574 Q35.2832 419.3574 35.1309 421.1328 ZM41.0898 425 L41.0898 418.6367 L42.2441 418.6367 L42.2441 419.832 Q42.9297 418.4961 44.2363 418.4961 Q44.4121 418.4961 44.6055 418.5254 L44.6055 419.6035 Q44.3066 419.5039 44.0781 419.5039 Q42.9824 419.5039 42.2441 420.8047 L42.2441 425 ZM50.6641 424.7949 Q49.5039 425.1465 48.6777 425.1465 Q47.2715 425.1465 46.3838 424.2119 Q45.4961 423.2773 45.4961 421.7891 Q45.4961 420.3418 46.2783 419.416 Q47.0605 418.4902 48.2793 418.4902 Q49.4336 418.4902 50.0635 419.3105 Q50.6934 420.1309 50.6934 421.6426 L50.6875 422 L46.6738 422 Q46.9258 424.2676 48.8945 424.2676 Q49.6152 424.2676 50.6641 423.8809 ZM46.7266 421.1328 L49.5332 421.1328 Q49.5332 419.3574 48.209 419.3574 Q46.8789 419.3574 46.7266 421.1328 ZM56.7695 425 L56.7695 423.8047 Q56.0664 425.1465 54.6484 425.1465 Q53.5 425.1465 52.8408 424.3086 Q52.1816 423.4707 52.1816 422.0176 Q52.1816 420.4297 52.9287 419.4629 Q53.6758 418.4961 54.8945 418.4961 Q56.0254 418.4961 56.7695 419.3633 L56.7695 415.748 L57.9297 415.748 L57.9297 425 ZM56.7695 420.1543 Q55.873 419.3633 55.0703 419.3633 Q53.4121 419.3633 53.4121 421.9004 Q53.4121 424.1328 54.8887 424.1328 Q55.8496 424.1328 56.7695 423.084 ZM64.0352 425.0703 L64.0352 415.748 L65.1895 415.748 L65.1895 419.832 Q65.8984 418.4961 67.3164 418.4961 Q68.4648 418.4961 69.124 419.334 Q69.7832 420.1719 69.7832 421.625 Q69.7832 423.207 69.0361 424.1768 Q68.2891 425.1465 67.0703 425.1465 Q65.9395 425.1465 65.1895 424.2793 L65.0488 425.0703 ZM65.1895 423.4824 Q66.0801 424.2793 66.8887 424.2793 Q68.5527 424.2793 68.5527 421.7422 Q68.5527 419.5039 67.0762 419.5039 Q66.1094 419.5039 65.1895 420.5527 ZM71.957 427.3145 L72.9883 425 L70.5273 418.6367 L71.7754 418.6367 L73.5977 423.4297 L75.543 418.6367 L76.6328 418.6367 L73.1582 427.3145 ZM82.0234 427.3145 L83.0547 425 L80.5938 418.6367 L81.8418 418.6367 L83.6641 423.4297 L85.6094 418.6367 L86.6992 418.6367 L83.2246 427.3145 ZM87.8887 425 L87.8887 416.3281 L92.7344 416.3281 L92.7344 417.248 L89.1191 417.248 L89.1191 420.1543 L92.1543 420.1543 L92.1543 421.0625 L89.1191 421.0625 L89.1191 425 ZM94.3574 425 L94.3574 418.6367 L95.5117 418.6367 L95.5117 425 ZM94.3574 417.4824 L94.3574 416.3281 L95.5117 416.3281 L95.5117 417.4824 ZM97.8262 425 L97.8262 415.748 L98.9805 415.748 L98.9805 425 ZM105.959 424.7949 Q104.7988 425.1465 103.9727 425.1465 Q102.5664 425.1465 101.6787 424.2119 Q100.791 423.2773 100.791 421.7891 Q100.791 420.3418 101.5732 419.416 Q102.3555 418.4902 103.5742 418.4902 Q104.7285 418.4902 105.3584 419.3105 Q105.9883 420.1309 105.9883 421.6426 L105.9824 422 L101.9688 422 Q102.2207 424.2676 104.1895 424.2676 Q104.9102 424.2676 105.959 423.8809 ZM102.0215 421.1328 L104.8281 421.1328 Q104.8281 419.3574 103.5039 419.3574 Q102.1738 419.3574 102.0215 421.1328 ZM109.668 425.1465 Q108.877 425.1465 107.7461 424.7773 L107.7461 423.7168 Q108.877 424.2793 109.7148 424.2793 Q110.2129 424.2793 110.541 424.0098 Q110.8691 423.7402 110.8691 423.3359 Q110.8691 422.7441 109.9492 422.3574 L109.2754 422.0703 Q107.7812 421.4492 107.7812 420.2832 Q107.7812 419.4512 108.3701 418.9736 Q108.959 418.4961 109.9844 418.4961 Q110.5176 418.4961 111.3027 418.6426 L111.543 418.6895 L111.543 419.6504 Q110.5762 419.3633 110.0078 419.3633 Q108.8945 419.3633 108.8945 420.1719 Q108.8945 420.6934 109.7383 421.0508 L110.2949 421.2852 Q111.2383 421.6836 111.6309 422.126 Q112.0234 422.5684 112.0234 423.2305 Q112.0234 424.0684 111.3613 424.6074 Q110.6992 425.1465 109.668 425.1465 Z" clip-path="url(#clipPath1)" stroke="none"/>
    </g>
    <g fill="rgb(255,255,204)" transform="matrix(0.8,0,0,0.8,18.1,-208.3)" stroke="rgb(255,255,204)">
      <rect x="156" width="165" height="29" y="350" clip-path="url(#clipPath2)" stroke="none"/>
      <rect x="156" y="350" clip-path="url(#clipPath2)" fill="none" width="165" height="29" stroke="gray"/>
    </g>
    <g font-size="13" stroke-miterlimit="1.45" font-weight="bold" font-family="sans-serif" transform="matrix(0.8,0,0,0.8,18.1,-208.3)" stroke-linecap="butt">
      <text x="165.2755" xml:space="preserve" y="368.8674" clip-path="url(#clipPath2)" stroke="none">Namespace</text>
    </g>
    <g fill="rgb(255,255,204)" transform="matrix(0.8,0,0,0.8,18.1,-208.3)" stroke="rgb(255,255,204)">
      <rect x="142" width="191" height="29" y="270" clip-path="url(#clipPath2)" stroke="none"/>
      <rect x="142" y="270" clip-path="url(#clipPath2)" fill="none" width="191" height="29" stroke="gray"/>
    </g>
    <g font-size="13" stroke-miterlimit="1.45" font-weight="bold" font-family="sans-serif" transform="matrix(0.8,0,0,0.8,18.1,-208.3)" stroke-linecap="butt">
      <text x="151.0839" xml:space="preserve" y="288.7694" clip-path="url(#clipPath2)" stroke="none">Namespace Role (User)</text>
    </g>
    <g fill="rgb(255,255,204)" transform="matrix(0.8,0,0,0.8,18.1,-208.3)" stroke="rgb(255,255,204)">
      <rect x="9" width="131" height="29" y="468" clip-path="url(#clipPath2)" stroke="none"/>
      <rect x="9" y="468" clip-path="url(#clipPath2)" fill="none" width="131" height="29" stroke="gray"/>
    </g>
    <g font-size="13" stroke-miterlimit="1.45" font-weight="bold" font-family="sans-serif" transform="matrix(0.8,0,0,0.8,18.1,-208.3)" stroke-linecap="butt">
      <text x="18.3605" xml:space="preserve" y="487.3168" clip-path="url(#clipPath2)" stroke="none">Device Type</text>
    </g>
    <g fill="rgb(255,255,204)" transform="matrix(0.8,0,0,0.8,18.1,-208.3)" stroke="rgb(255,255,204)">
      <rect x="390" width="118" height="29" y="469" clip-path="url(#clipPath2)" stroke="none"/>
      <rect x="390" y="469" clip-path="url(#clipPath2)" fill="none" width="118" height="29" stroke="gray"/>
    </g>
    <g font-size="13" stroke-miterlimit="1.45" font-weight="bold" font-family="sans-serif" transform="matrix(0.8,0,0,0.8,18.1,-208.3)" stroke-linecap="butt">
      <text x="399.4657" xml:space="preserve" y="488.5566" clip-path="url(#clipPath2)" stroke="none">Firmware</text>
    </g>
    <g fill="rgb(255,255,204)" transform="matrix(0.8,0,0,0.8,18.1,-208.3)" stroke="rgb(255,255,204)">
      <rect x="155" width="178" height="29" y="631" clip-path="url(#clipPath2)" stroke="none"/>
      <rect x="155" y="631" clip-path="url(#clipPath2)" fill="none" width="178" height="29" stroke="gray"/>
    </g>
    <g font-size="13" stroke-miterlimit="1.45" font-weight="bold" font-family="sans-serif" transform="matrix(0.8,0,0,0.8,18.1,-208.3)" stroke-linecap="butt">
      <text x="164.886" xml:space="preserve" y="650.0579" clip-path="url(#clipPath2)" stroke="none">Field Configuration</text>
    </g>
    <g fill="rgb(255,255,204)" transform="matrix(0.8,0,0,0.8,18.1,-208.3)" stroke="rgb(255,255,204)">
      <rect x="172" width="150" height="29" y="699" clip-path="url(#clipPath2)" stroke="none"/>
      <rect x="172" y="699" clip-path="url(#clipPath2)" fill="none" width="150" height="29" stroke="gray"/>
    </g>
    <g font-size="13" stroke-miterlimit="1.45" font-weight="bold" font-family="sans-serif" transform="matrix(0.8,0,0,0.8,18.1,-208.3)" stroke-linecap="butt">
      <text x="181.7153" xml:space="preserve" y="718.24" clip-path="url(#clipPath2)" stroke="none">Field Condition</text>
    </g>
    <g fill="rgb(255,255,204)" transform="matrix(0.8,0,0,0.8,18.1,-208.3)" stroke="rgb(255,255,204)">
      <rect x="0" width="152" height="29" y="575" clip-path="url(#clipPath2)" stroke="none"/>
      <rect x="0" y="575" clip-path="url(#clipPath2)" fill="none" width="152" height="29" stroke="gray"/>
    </g>
    <g font-size="13" stroke-miterlimit="1.45" font-weight="bold" font-family="sans-serif" transform="matrix(0.8,0,0,0.8,18.1,-208.3)" stroke-linecap="butt">
      <text x="8.5836" xml:space="preserve" y="594.183" clip-path="url(#clipPath2)" stroke="none">Field Definition</text>
    </g>
    <g fill="rgb(255,255,204)" transform="matrix(0.8,0,0,0.8,18.1,-208.3)" stroke="rgb(255,255,204)">
      <rect x="-12" width="168" height="29" y="707" clip-path="url(#clipPath2)" stroke="none"/>
      <rect x="-12" y="707" clip-path="url(#clipPath2)" fill="none" width="168" height="29" stroke="gray"/>
    </g>
    <g font-size="13" stroke-miterlimit="1.45" font-weight="bold" font-family="sans-serif" transform="matrix(0.8,0,0,0.8,18.1,-208.3)" stroke-linecap="butt">
      <text x="-3.2132" xml:space="preserve" y="725.5927" clip-path="url(#clipPath2)" stroke="none">Packet Processor</text>
    </g>
    <g fill="rgb(255,255,204)" transform="matrix(0.8,0,0,0.8,18.1,-208.3)" stroke="rgb(255,255,204)">
      <rect x="185" width="125" height="29" y="767" clip-path="url(#clipPath2)" stroke="none"/>
      <rect x="185" y="767" clip-path="url(#clipPath2)" fill="none" width="125" height="29" stroke="gray"/>
    </g>
    <g font-size="13" stroke-miterlimit="1.45" font-weight="bold" font-family="sans-serif" transform="matrix(0.8,0,0,0.8,18.1,-208.3)" stroke-linecap="butt">
      <text x="194.3128" xml:space="preserve" y="786.0701" clip-path="url(#clipPath2)" stroke="none">Field Event</text>
    </g>
    <g fill="rgb(255,255,204)" transform="matrix(0.8,0,0,0.8,18.1,-208.3)" stroke="rgb(255,255,204)">
      <rect x="190" width="101" height="29" y="467" clip-path="url(#clipPath2)" stroke="none"/>
      <rect x="190" y="467" clip-path="url(#clipPath2)" fill="none" width="101" height="29" stroke="gray"/>
    </g>
    <g font-size="13" stroke-miterlimit="1.45" font-weight="bold" font-family="sans-serif" transform="matrix(0.8,0,0,0.8,18.1,-208.3)" stroke-linecap="butt">
      <text x="199.5964" xml:space="preserve" y="485.8657" clip-path="url(#clipPath2)" stroke="none">Device</text>
    </g>
    <g fill="rgb(255,255,204)" transform="matrix(0.8,0,0,0.8,18.1,-208.3)" stroke="rgb(255,255,204)">
      <rect x="357" width="161" height="29" y="632" clip-path="url(#clipPath2)" stroke="none"/>
      <rect x="357" y="632" clip-path="url(#clipPath2)" fill="none" width="161" height="29" stroke="gray"/>
    </g>
    <g font-size="13" stroke-miterlimit="1.45" font-weight="bold" font-family="sans-serif" transform="matrix(0.8,0,0,0.8,18.1,-208.3)" stroke-linecap="butt">
      <text x="366.9375" xml:space="preserve" y="651.278" clip-path="url(#clipPath2)" stroke="none">Device Message</text>
    </g>
    <g fill="gray" stroke-miterlimit="1.45" transform="matrix(0.8,0,0,0.8,18.1,-208.3)" stroke-linecap="butt" stroke="gray">
      <path fill="none" d="M237.8021 299.5227 L238.4384 342.2906" clip-path="url(#clipPath2)"/>
      <path d="M238.5573 350.2897 L243.3783 338.2167 L238.4235 341.2907 L233.3794 338.3654 Z" clip-path="url(#clipPath2)" stroke="none"/>
      <path fill="none" d="M240.8058 467.2992 L239.2246 387.5949" clip-path="url(#clipPath2)"/>
      <path d="M239.066 379.5965 L234.3049 391.6933 L239.2445 388.5947 L244.303 391.4949 Z" clip-path="url(#clipPath2)" stroke="none"/>
      <path fill="none" d="M266.3464 467.268 L266.3464 452.2973 L272.3464 446.2973 L306.5964 446.2973 L312.5964 452.2973 L312.5964 468.6249 L306.5964 474.6249 L299.6257 474.6249" clip-path="url(#clipPath2)"/>
      <path d="M291.6257 474.6249 L303.6257 479.6249 L300.6257 474.6249 L303.6257 469.6249 Z" clip-path="url(#clipPath2)" stroke="none"/>
      <path fill="none" d="M190.5682 482.3936 L148.3695 482.762" clip-path="url(#clipPath2)"/>
      <path d="M140.3698 482.8318 L152.413 487.7269 L149.3695 482.7533 L152.3257 477.7273 Z" clip-path="url(#clipPath2)" stroke="none"/>
      <path fill="none" d="M291.5863 482.6046 L382.4543 483.7781" clip-path="url(#clipPath2)"/>
      <path d="M390.4537 483.8814 L378.5192 478.7269 L381.4544 483.7652 L378.3901 488.7261 Z" clip-path="url(#clipPath2)" stroke="none"/>
      <path fill="none" d="M420.9726 632.7258 L264.7277 501.7604" clip-path="url(#clipPath2)"/>
      <path d="M258.5966 496.6213 L264.5813 508.1619 L265.494 502.4028 L271.0051 500.498 Z" clip-path="url(#clipPath2)" stroke="none"/>
      <path fill="none" d="M247.1061 699.6451 L245.8258 668.793" clip-path="url(#clipPath2)"/>
      <path d="M245.4942 660.7999 L240.996 672.9969 L245.8673 669.7922 L250.9874 672.5823 Z" clip-path="url(#clipPath2)" stroke="none"/>
      <path fill="none" d="M244.5483 631.5134 L241.619 504.5925" clip-path="url(#clipPath2)"/>
      <path d="M241.4344 496.5946 L236.7126 508.7068 L241.642 505.5922 L246.7099 508.4761 Z" clip-path="url(#clipPath2)" stroke="none"/>
      <path fill="none" d="M200.4524 631.4803 L127.598 607.4362" clip-path="url(#clipPath2)"/>
      <path d="M120.001 604.929 L129.8295 613.4379 L128.5476 607.7496 L132.9635 603.9417 Z" clip-path="url(#clipPath2)" stroke="none"/>
      <path fill="none" d="M75.4846 575.6332 L75.0137 506.0396" clip-path="url(#clipPath2)"/>
      <path d="M74.9596 498.0397 L70.0409 510.0733 L75.0205 507.0395 L80.0406 510.0056 Z" clip-path="url(#clipPath2)" stroke="none"/>
      <path fill="none" d="M75.16 604.9316 L72.442 699.0039" clip-path="url(#clipPath2)"/>
      <path d="M72.211 707.0005 L77.5554 695.15 L72.4709 698.0043 L67.5596 694.8611 Z" clip-path="url(#clipPath2)" stroke="none"/>
      <path fill="none" d="M247.7917 767.4847 L247.7479 736.992" clip-path="url(#clipPath2)"/>
      <path d="M247.7364 728.992 L242.7536 740.9992 L247.7493 737.992 L252.7536 740.9848 Z" clip-path="url(#clipPath2)" stroke="none"/>
    </g>
  </g>
</svg>
